<?xml version="1.0" standalone="no"?>
<!DOCTYPE svg PUBLIC "-//W3C//DTD SVG 20010904//EN"
 "http://www.w3.org/TR/2001/REC-SVG-20010904/DTD/svg10.dtd">
<svg version="1.0" xmlns="http://www.w3.org/2000/svg"
 width="856.000000pt" height="856.000000pt" viewBox="0 0 856.000000 856.000000"
 preserveAspectRatio="xMidYMid meet">
<metadata>
Created by potrace 1.14, written by Peter Selinger 2001-2017
</metadata>
<g transform="translate(0.000000,856.000000) scale(0.100000,-0.100000)"
fill="#000000" stroke="none">
<path d="M0 4280 l0 -2810 490 0 c270 0 490 3 491 8 0 4 1 886 1 1960 1 1073
2 1952 3 1952 1 0 26 -33 55 -72 29 -40 73 -99 96 -131 24 -31 44 -61 44 -66
0 -5 4 -11 8 -13 4 -1 50 -61 102 -133 124 -169 218 -297 227 -310 5 -5 37
-50 73 -100 64 -89 182 -251 197 -270 5 -5 98 -134 208 -285 110 -151 203
-276 207 -278 5 -2 8 -8 8 -13 0 -5 6 -17 14 -26 17 -21 114 -152 136 -183 20
-29 227 -312 237 -325 5 -5 20 -26 33 -45 13 -19 28 -39 32 -45 73 -95 88
-116 88 -124 0 -5 4 -11 8 -13 7 -3 86 -110 277 -373 33 -46 68 -93 77 -106
10 -13 54 -73 97 -134 44 -60 84 -114 88 -120 5 -5 80 -109 168 -230 88 -121
164 -225 170 -231 5 -6 55 -75 110 -152 l100 -141 436 -1 437 0 53 72 c30 40
65 90 79 110 14 21 28 38 33 38 4 0 7 6 7 14 0 8 4 16 8 18 4 2 23 25 42 53
42 60 44 62 75 100 14 17 25 35 25 42 0 6 4 13 8 15 5 2 69 86 143 188 73 102
139 191 146 198 7 8 18 23 24 35 7 11 16 26 21 31 16 20 175 237 208 286 14
19 29 40 35 46 5 6 17 21 25 34 20 29 266 370 286 395 19 25 144 198 176 243
13 18 29 39 35 47 7 7 13 16 13 19 0 3 7 14 16 23 9 10 56 74 105 143 50 69
96 133 104 142 7 9 22 29 32 45 10 15 22 34 28 40 21 25 70 93 195 268 71 99
135 187 143 195 7 8 21 28 31 43 9 16 23 36 31 45 41 50 85 113 85 121 0 5 4
11 8 13 7 3 135 175 279 377 34 47 65 91 70 96 13 15 86 116 103 141 44 67
176 244 181 244 3 0 6 -874 7 -1942 0 -1069 1 -1951 1 -1960 1 -17 31 -18 491
-18 l490 0 0 2810 0 2810 -455 0 -454 0 -33 -44 c-47 -63 -71 -96 -88 -122 -8
-12 -85 -118 -170 -234 -85 -117 -159 -220 -165 -229 -5 -9 -12 -18 -15 -21
-3 -3 -57 -77 -120 -165 -63 -88 -118 -164 -122 -170 -21 -26 -65 -85 -78
-105 -8 -12 -37 -53 -65 -90 -27 -38 -57 -79 -65 -91 -8 -12 -48 -67 -89 -123
-41 -55 -93 -128 -117 -161 -24 -33 -48 -65 -54 -72 -5 -7 -10 -17 -10 -23 0
-5 -3 -10 -7 -10 -5 0 -19 -17 -33 -38 -14 -20 -29 -41 -33 -47 -4 -5 -29 -39
-54 -75 -55 -77 -126 -174 -156 -213 -12 -16 -28 -39 -37 -52 -40 -62 -325
-450 -332 -453 -4 -2 -8 -8 -8 -13 0 -6 -5 -15 -10 -22 -10 -11 -122 -165
-156 -212 -7 -11 -50 -69 -94 -128 -44 -60 -80 -110 -80 -113 0 -3 -5 -10 -10
-17 -6 -7 -29 -37 -51 -67 -21 -30 -43 -59 -47 -65 -4 -5 -44 -59 -87 -120
-43 -60 -116 -161 -162 -223 -46 -62 -83 -116 -83 -121 0 -5 -4 -11 -8 -13 -6
-2 -153 -202 -398 -543 -45 -62 -202 -279 -241 -332 l-46 -62 -40 57 c-23 31
-43 59 -47 62 -3 3 -16 22 -30 42 -14 21 -28 38 -32 38 -5 0 -8 5 -8 10 0 6
-39 63 -87 128 -49 65 -104 140 -123 167 -19 28 -38 52 -42 53 -4 2 -8 8 -8
13 0 8 -79 117 -107 147 -7 7 -13 16 -13 20 0 4 -10 19 -23 34 -12 15 -33 44
-47 63 -14 20 -36 51 -50 69 -14 19 -43 60 -65 91 -22 32 -48 66 -58 76 -9 11
-17 22 -17 27 0 4 -10 18 -22 32 -13 14 -36 45 -53 70 -16 24 -35 51 -42 60
-7 8 -35 47 -62 85 -28 39 -55 75 -61 82 -6 7 -20 27 -33 45 -12 18 -47 67
-78 108 -30 41 -91 125 -134 185 -43 61 -83 112 -87 113 -4 2 -8 10 -8 17 0 7
-3 15 -8 17 -4 2 -25 28 -47 58 -22 30 -42 57 -45 60 -3 3 -19 25 -35 50 -16
25 -32 47 -35 50 -3 3 -17 21 -30 40 -13 19 -30 41 -36 47 -7 7 -22 29 -35 50
-13 21 -29 44 -35 50 -7 7 -22 28 -34 48 -12 19 -26 35 -31 35 -5 0 -9 6 -9
13 0 7 -10 23 -23 37 -12 14 -31 38 -41 55 -11 16 -23 34 -28 40 -17 21 -105
142 -138 190 -18 28 -37 52 -40 55 -3 3 -40 52 -81 109 -83 115 -165 229 -221
305 -21 28 -46 62 -55 76 -17 25 -105 146 -120 165 -5 6 -26 35 -47 65 -22 30
-43 57 -48 58 -4 2 -8 8 -8 13 0 6 -5 15 -10 22 -6 7 -46 60 -88 118 -42 59
-85 117 -94 130 -10 13 -47 65 -83 114 -36 50 -68 95 -73 100 -4 6 -81 111
-170 235 -90 124 -175 240 -189 258 l-25 32 -494 0 -494 0 0 -2810z"/>
</g>
</svg>
