<svg width="888.107" height="70.403" viewBox="0 0 888.107 70.403" xmlns="http://www.w3.org/2000/svg"><g id="svgGroup" stroke-linecap="round" fill-rule="evenodd" font-size="9pt" stroke="#000" stroke-width="0.25mm" fill="#000" style="stroke:#000;stroke-width:0.25mm;fill:#000"><path d="M 107.2 70.401 L 107.2 0.001 L 95.8 0.001 L 54.2 57.501 L 12.4 0.001 L 0 0.001 L 0 70.401 L 12.3 70.401 L 12.3 21.201 L 48.2 70.401 L 59.1 70.401 L 94.9 21.101 L 94.9 70.401 L 107.2 70.401 Z M 303.1 53.401 L 303.1 44.701 C 303.1 35.867 298.433 29.481 286.555 28.019 A 45.571 45.571 0 0 0 281 27.701 L 239.6 27.701 C 233.725 27.701 230.918 25.496 230.804 21.461 A 9.174 9.174 0 0 1 230.8 21.201 L 230.8 16.901 A 6.529 6.529 0 0 1 231.546 13.682 C 232.491 11.983 234.348 10.914 237.187 10.546 A 18.786 18.786 0 0 1 239.6 10.401 L 299.2 10.401 L 299.2 0.001 L 239.6 0.001 A 42.046 42.046 0 0 0 232.06 0.621 C 221.644 2.526 217.5 8.677 217.5 17.001 L 217.5 21.101 C 217.5 29.936 222.167 36.322 234.045 37.784 A 45.571 45.571 0 0 0 239.6 38.101 L 281 38.101 C 286.875 38.101 289.682 40.307 289.796 44.342 A 9.174 9.174 0 0 1 289.8 44.601 L 289.8 53.501 A 6.529 6.529 0 0 1 289.054 56.72 C 288.109 58.419 286.252 59.488 283.413 59.857 A 18.786 18.786 0 0 1 281 60.001 L 219.8 60.001 L 219.8 70.401 L 281 70.401 A 42.046 42.046 0 0 0 288.54 69.782 C 298.956 67.877 303.1 61.726 303.1 53.401 Z M 398.2 53.401 L 398.2 44.701 C 398.2 35.867 393.533 29.481 381.655 28.019 A 45.571 45.571 0 0 0 376.1 27.701 L 334.7 27.701 C 328.825 27.701 326.018 25.496 325.904 21.461 A 9.174 9.174 0 0 1 325.9 21.201 L 325.9 16.901 A 6.529 6.529 0 0 1 326.646 13.682 C 327.591 11.983 329.448 10.914 332.287 10.546 A 18.786 18.786 0 0 1 334.7 10.401 L 394.3 10.401 L 394.3 0.001 L 334.7 0.001 A 42.046 42.046 0 0 0 327.16 0.621 C 316.744 2.526 312.6 8.677 312.6 17.001 L 312.6 21.101 C 312.6 29.936 317.267 36.322 329.145 37.784 A 45.571 45.571 0 0 0 334.7 38.101 L 376.1 38.101 C 381.975 38.101 384.782 40.307 384.896 44.342 A 9.174 9.174 0 0 1 384.9 44.601 L 384.9 53.501 A 6.529 6.529 0 0 1 384.154 56.72 C 383.209 58.419 381.352 59.488 378.513 59.857 A 18.786 18.786 0 0 1 376.1 60.001 L 314.9 60.001 L 314.9 70.401 L 376.1 70.401 A 42.046 42.046 0 0 0 383.64 69.782 C 394.056 67.877 398.2 61.726 398.2 53.401 Z M 784.6 70.401 L 784.6 0.001 L 773 0.001 L 773 52.301 L 702.9 0.001 L 691.4 0.001 L 691.4 70.401 L 703 70.401 L 703 15.601 L 778.1 70.401 L 784.6 70.401 Z M 216.7 70.401 L 170.2 0.001 L 160.5 0.001 L 113.7 70.401 L 128.5 70.401 L 165.4 13.701 L 201.7 70.401 L 216.7 70.401 Z M 502.1 70.401 L 455.6 0.001 L 445.9 0.001 L 399.1 70.401 L 413.9 70.401 L 450.8 13.701 L 487.1 70.401 L 502.1 70.401 Z M 684.9 70.401 L 638.4 0.001 L 628.7 0.001 L 581.9 70.401 L 596.7 70.401 L 633.6 13.701 L 669.9 70.401 L 684.9 70.401 Z M 888.1 50.301 L 888.1 20.801 C 888.1 6.901 882 0.001 862.1 0.001 L 797.6 0.001 L 797.6 70.401 L 862.1 70.401 C 880.684 70.401 887.233 64.384 888.018 52.838 A 37.423 37.423 0 0 0 888.1 50.301 Z M 579.1 70.401 L 579.1 60.001 L 522 60.001 L 522 0.001 L 508.6 0.001 L 508.6 70.401 L 579.1 70.401 Z M 862.1 60.001 L 810.9 60.001 L 810.9 10.401 L 862.1 10.401 A 40.703 40.703 0 0 1 866.237 10.583 C 872.807 11.262 874.8 13.967 874.8 20.801 L 874.8 50.201 C 874.8 57.538 872.121 59.899 862.738 59.998 A 60.156 60.156 0 0 1 862.1 60.001 Z" vector-effect="non-scaling-stroke"/></g></svg>